# xmcd CD database file
#
# Track frame offsets:
#	150
#	26609
#	65118
#	100248
#	126297
#	159821
#	192658
#	225866
#	262164
#	308291
#
# Disc length: 4599 seconds
#
# Revision: 0
# Processed by: cddbd v1.5.2PL0 Copyright (c) Steve Scherf et al.
# Submitted via: CDex 1.51
#
DISCID=7e11f50a
DTITLE=Alan Barnes and Scott Hamilton - Zootcase
DYEAR=2005
DGENRE=Jazz
TTITLE0=Zootcase
TTITLE1=Stella By Starlight
TTITLE2=Bean Soup
TTITLE3=Stardust
TTITLE4=I Remember April
TTITLE5=Do Nothing 'Till You Hear From Me
TTITLE6=On Green Dolphin Street
TTITLE7=My Ideal
TTITLE8=Just One Of Those Things
TTITLE9=Disorder On The Border
EXTD=YEAR: 2005
EXTT0=
EXTT1=
EXTT2=
EXTT3=
EXTT4=
EXTT5=
EXTT6=
EXTT7=
EXTT8=
EXTT9=
PLAYORDER=
